#tb 0: 1001/30000
#media_type 0: video
#codec_id 0: rawvideo
#dimensions 0: 640x480
#sar 0: 0/1
0,          0,          0,        1,   921600, 0x9776611f
0,          1,          1,        1,   921600, 0xdbfa64f4
0,          2,          2,        1,   921600, 0xed2a0580
0,          3,          3,        1,   921600, 0x6ecc80bc
0,          4,          4,        1,   921600, 0x58ddd0be
